<svg width="96" height="96" viewBox="0 0 96 96" fill="none" xmlns="http://www.w3.org/2000/svg">
  <defs>
    <linearGradient id="tl-bg" x1="10" y1="8" x2="86" y2="90" gradientUnits="userSpaceOnUse">
      <stop offset="0" stop-color="#1B2559"/>
      <stop offset="0.45" stop-color="#2B4ABF"/>
      <stop offset="1" stop-color="#35C9D6"/>
    </linearGradient>
    <linearGradient id="tl-glow" x1="24" y1="16" x2="74" y2="84" gradientUnits="userSpaceOnUse">
      <stop offset="0" stop-color="#CFF2FF" stop-opacity="0.96"/>
      <stop offset="1" stop-color="#F5FDFF" stop-opacity="0.86"/>
    </linearGradient>
  </defs>
  <rect x="4" y="4" width="88" height="88" rx="24" fill="url(#tl-bg)"/>
  <path d="M22 36C22 28.3 28.3 22 36 22H60C67.7 22 74 28.3 74 36V60C74 67.7 67.7 74 60 74H36C28.3 74 22 67.7 22 60V36Z" fill="#0A173C" fill-opacity="0.42"/>
  <path d="M28 41C28 34.4 33.4 29 40 29H56C62.6 29 68 34.4 68 41V55C68 61.6 62.6 67 56 67H40C33.4 67 28 61.6 28 55V41Z" fill="url(#tl-glow)" fill-opacity="0.22"/>
  <rect x="30" y="46" width="36" height="22" rx="6" fill="#E8F6FF" fill-opacity="0.94"/>
  <path d="M30 53H66" stroke="#B5D6EA" stroke-width="1.7"/>
  <circle cx="52.5" cy="57.5" r="1.7" fill="#5F88A2"/>
  <path d="M48 28V34H40C35.6 34 32 37.6 32 42V46H26V42C26 34.3 32.3 28 40 28H48Z" fill="#E6F6FF" fill-opacity="0.96"/>
  <path d="M70 44.5V52.5L74 48.5L70 44.5Z" fill="#B6E8F3" fill-opacity="0.95"/>
</svg>
